<?xml version="1.0" encoding="UTF-8" ?>
<!DOCTYPE svg PUBLIC "-//W3C//DTD SVG 1.1//EN" "http://www.w3.org/Graphics/SVG/1.1/DTD/svg11.dtd">
<svg width="128pt" height="128pt" viewBox="0 0 128 128" version="1.1" xmlns="http://www.w3.org/2000/svg">
<path fill="#ffffff" d=" M 0.00 0.00 L 128.00 0.00 L 128.00 128.00 L 0.00 128.00 L 0.00 0.00 Z" />
<path fill="#39be7f" d=" M 52.80 3.22 C 57.52 5.90 61.60 9.68 65.35 13.58 C 72.02 20.89 75.67 31.97 71.51 41.43 C 69.74 47.42 63.27 50.81 62.45 57.19 C 62.45 60.94 65.41 63.69 68.32 65.61 C 71.28 65.48 74.67 66.21 77.15 64.12 C 80.25 62.12 81.65 58.58 82.56 55.17 C 81.15 50.19 82.04 44.74 84.10 40.07 C 85.99 35.88 90.58 34.18 94.72 33.09 C 93.87 36.00 92.65 38.88 92.48 41.94 C 92.63 45.69 94.27 49.15 95.87 52.47 C 97.00 52.54 98.13 52.61 99.26 52.68 C 98.84 56.46 100.40 59.90 102.22 63.10 C 105.53 60.66 105.01 56.03 106.45 52.53 C 108.87 52.56 111.29 52.59 113.71 52.64 C 113.57 56.66 111.65 60.40 111.52 64.38 C 113.69 66.24 116.77 65.29 119.38 65.55 C 119.38 67.87 119.37 70.18 119.36 72.49 C 116.17 72.53 112.96 72.26 109.80 72.71 C 107.31 75.98 107.51 80.59 106.28 84.44 C 109.01 84.50 111.75 84.52 114.49 84.54 C 114.49 87.03 114.48 89.52 114.45 92.01 C 111.22 92.26 107.99 92.31 104.76 92.19 C 102.48 96.55 102.32 101.58 100.61 106.13 C 97.92 106.84 95.07 106.40 92.31 106.42 C 86.88 111.51 80.28 115.30 73.01 117.01 C 79.87 110.88 80.72 97.98 72.64 92.52 C 67.67 88.70 61.14 90.64 55.67 92.08 C 56.02 87.12 55.83 82.15 55.81 77.19 C 53.49 79.51 51.17 81.84 48.86 84.16 C 47.14 82.96 45.43 81.74 43.63 80.66 C 43.88 77.03 44.31 73.40 44.80 69.79 C 42.30 72.53 39.87 75.35 37.60 78.29 C 28.77 76.30 19.30 79.95 13.79 87.05 C 13.09 79.40 15.42 71.68 18.80 64.87 C 25.66 52.27 39.04 45.71 48.78 35.75 C 53.97 30.72 56.82 23.40 56.31 16.20 C 55.47 11.82 55.36 7.05 52.80 3.22 Z" />
<path fill="#ffffff" d=" M 90.26 67.45 C 92.33 62.96 91.26 56.33 96.38 53.85 C 96.92 58.49 94.52 62.78 94.30 67.37 C 97.72 67.41 101.14 67.43 104.56 67.46 C 106.25 63.18 106.03 58.01 109.03 54.34 C 109.45 54.49 110.31 54.79 110.73 54.94 C 110.89 59.20 109.21 63.22 108.44 67.36 C 111.23 67.54 114.20 66.94 116.88 67.99 C 116.88 68.50 116.88 69.53 116.89 70.05 C 113.91 70.89 110.77 70.45 107.73 70.49 C 106.09 75.73 104.94 81.11 103.61 86.44 C 106.64 86.48 109.67 86.49 112.71 86.55 C 112.61 87.49 112.48 88.43 112.32 89.36 C 109.54 89.95 106.66 89.52 103.85 89.84 C 102.31 90.14 102.11 91.79 101.72 93.01 C 100.77 96.41 100.07 99.87 99.26 103.30 C 98.91 103.65 98.20 104.33 97.84 104.67 C 97.38 104.50 96.46 104.16 96.00 103.98 C 96.45 99.15 98.25 94.58 98.71 89.76 C 95.30 89.71 91.89 89.68 88.48 89.64 C 86.68 94.49 86.39 99.82 84.13 104.50 C 83.50 104.51 82.23 104.52 81.59 104.53 C 81.67 99.54 84.04 94.88 84.61 89.93 C 81.75 89.76 78.88 89.82 76.04 89.52 C 75.79 88.80 75.30 87.36 75.05 86.65 C 78.56 86.45 82.07 86.48 85.58 86.51 C 87.05 81.51 88.01 76.37 89.65 71.41 C 87.03 70.26 84.16 70.60 81.40 70.39 C 79.87 70.60 79.82 68.37 80.67 67.65 C 83.84 67.17 87.07 67.44 90.26 67.45 Z" />
<path fill="#ffffff" d=" M 37.60 78.29 C 39.87 75.35 42.30 72.53 44.80 69.79 C 44.31 73.40 43.88 77.03 43.63 80.66 C 41.70 79.68 39.68 78.88 37.60 78.29 Z" />
<path fill="#39be7f" d=" M 93.34 70.88 C 96.70 70.06 100.26 70.63 103.70 70.59 C 102.83 75.95 101.09 81.11 100.11 86.44 C 96.50 86.50 92.89 86.52 89.29 86.43 C 90.49 81.21 91.39 75.88 93.34 70.88 Z" />
<path fill="#000000" d=" M 13.79 87.05 C 19.30 79.95 28.77 76.30 37.60 78.29 C 39.68 78.88 41.70 79.68 43.63 80.66 C 45.43 81.74 47.14 82.96 48.86 84.16 C 51.17 81.84 53.49 79.51 55.81 77.19 C 55.83 82.15 56.02 87.12 55.67 92.08 C 55.55 93.18 55.43 94.28 55.29 95.38 C 49.68 95.40 44.07 95.28 38.47 95.44 C 40.58 93.70 42.54 91.80 44.49 89.89 C 44.52 89.28 44.54 88.67 44.57 88.06 C 41.58 86.17 38.57 83.67 34.77 84.14 C 26.28 83.33 18.02 88.93 15.83 97.20 C 13.27 101.33 15.48 105.85 16.68 110.01 C 18.67 112.37 20.38 115.10 23.15 116.64 C 27.76 119.11 33.51 120.71 38.32 117.76 C 39.23 117.39 40.14 117.02 41.05 116.66 C 41.30 116.57 41.80 116.37 42.05 116.27 C 42.94 115.62 43.83 114.98 44.73 114.34 C 45.99 115.61 47.25 116.88 48.49 118.17 C 42.85 122.73 35.38 125.80 28.08 124.12 C 22.42 122.46 16.72 119.44 13.61 114.23 C 10.16 108.94 8.48 102.11 10.41 95.95 C 11.03 92.80 13.03 90.16 13.79 87.05 Z" />
<path fill="#39be7f" d=" M 15.83 97.20 C 18.02 88.93 26.28 83.33 34.77 84.14 C 31.04 91.38 31.83 100.23 34.64 107.65 C 35.85 111.23 38.42 114.06 41.05 116.66 C 40.14 117.02 39.23 117.39 38.32 117.76 C 33.56 114.91 28.38 112.62 24.30 108.77 C 20.69 105.55 18.47 101.18 15.83 97.20 Z" />
<path fill="#ffffff" d=" M 15.83 97.20 C 18.47 101.18 20.69 105.55 24.30 108.77 C 28.38 112.62 33.56 114.91 38.32 117.76 C 33.51 120.71 27.76 119.11 23.15 116.64 C 20.38 115.10 18.67 112.37 16.68 110.01 C 15.48 105.85 13.27 101.33 15.83 97.20 Z" />
</svg>
